<svg xmlns="http://www.w3.org/2000/svg" xmlns:xlink="http://www.w3.org/1999/xlink" width="50.581" height="50.581" viewBox="0 0 50.581 50.581"><defs><style>.a{fill:url(#a);}.b{fill:#fff;}</style><linearGradient id="a" x1="0.15" y1="0.15" x2="0.915" y2="0.915" gradientUnits="objectBoundingBox"><stop offset="0" stop-color="#2aa4f4"/><stop offset="1" stop-color="#007ad9"/></linearGradient></defs><path class="a" d="M29.291,4A25.291,25.291,0,1,0,54.581,29.291,25.29,25.29,0,0,0,29.291,4Z" transform="translate(-4 -4)"/><path class="b" d="M29.523,33.821h6.545L37.1,27.173H29.523V23.538c0-2.762.9-5.211,3.486-5.211h4.151v-5.8a35.283,35.283,0,0,0-5.187-.314c-6.087,0-9.656,3.214-9.656,10.539v4.423H16.06v6.649h6.257V52.1a25.581,25.581,0,0,0,3.783.311,25.445,25.445,0,0,0,3.423-.258Z" transform="translate(-0.81 -1.828)"/></svg>