<svg xmlns="http://www.w3.org/2000/svg" xmlns:xlink="http://www.w3.org/1999/xlink" width="50.26" height="50.26" viewBox="0 0 50.26 50.26"><defs><style>.a{fill:url(#a);}.b{opacity:0.05;}.c{opacity:0.07;}.d{fill:#fff;}</style><linearGradient id="a" x1="0.5" y1="-0.219" x2="0.5" y2="1.308" gradientUnits="objectBoundingBox"><stop offset="0" stop-color="#4caf50"/><stop offset="0.489" stop-color="#4aaf50"/><stop offset="0.665" stop-color="#43ad50"/><stop offset="0.79" stop-color="#38aa50"/><stop offset="0.892" stop-color="#27a550"/><stop offset="0.978" stop-color="#11a050"/><stop offset="1" stop-color="#0a9e50"/></linearGradient></defs><path class="a" d="M29.131,4a25.13,25.13,0,1,0,25.13,25.13A25.08,25.08,0,0,0,29.131,4Z" transform="translate(-4.001 -4)"/><path class="b" d="M24.142,16.195c6.979,0,14.324,1.47,19.834,4.591a2.338,2.338,0,0,1,1.284,2.2,2.4,2.4,0,0,1-2.386,2.205,3.427,3.427,0,0,1-1.285-.366c-4.408-2.572-11.018-4.042-17.447-4.042a40.068,40.068,0,0,0-9.549,1.1c-.368,0-.735.183-1.285.183a1.914,1.914,0,0,1-.278.02A2.065,2.065,0,0,1,11.1,19.869a2.065,2.065,0,0,1,1.652-2.2,37.184,37.184,0,0,1,11.386-1.47m-.552,8.081a32.878,32.878,0,0,1,17.08,4.407,2.019,2.019,0,0,1,1.1,1.836,1.887,1.887,0,0,1-1.837,2.02,2.647,2.647,0,0,1-1.285-.366,29.241,29.241,0,0,0-15.241-3.859,30.5,30.5,0,0,0-7.714.921,2.77,2.77,0,0,1-1.1.181,1.84,1.84,0,0,1-1.837-1.836,1.989,1.989,0,0,1,1.469-2.019,33.933,33.933,0,0,1,9.366-1.285m.55,7.9A27.247,27.247,0,0,1,38.1,35.846a1.719,1.719,0,0,1,.919,1.651,1.762,1.762,0,0,1-1.652,1.285,2.6,2.6,0,0,1-1.1-.367,24.5,24.5,0,0,0-12.3-3.121,33.762,33.762,0,0,0-7.53.917c-.367,0-.919.183-1.1.183a1.449,1.449,0,0,1-1.469-1.47,1.6,1.6,0,0,1,1.285-1.651,36.509,36.509,0,0,1,9-1.1m0-17.234a38.092,38.092,0,0,0-11.707,1.51,3.322,3.322,0,0,0-2.588,3.42,3.306,3.306,0,0,0,3.183,3.481,3.032,3.032,0,0,0,.366-.021,4.688,4.688,0,0,0,.96-.134,1.5,1.5,0,0,1,.243-.048h.155l.146-.038a38.824,38.824,0,0,1,9.245-1.064c6.374,0,12.659,1.447,16.813,3.871l.113.067.124.041c.137.045.245.092.343.132a3.142,3.142,0,0,0,1.338.3,3.663,3.663,0,0,0,3.63-3.286l.013-.088v-.089a3.576,3.576,0,0,0-1.946-3.311c-5.334-3.012-12.777-4.74-20.43-4.74Zm-.552,8.081A35.417,35.417,0,0,0,13.9,24.347l-.073.019-.069.028A3.227,3.227,0,0,0,11.5,27.58a3.1,3.1,0,0,0,3.094,3.092,3.97,3.97,0,0,0,1.494-.244,29.479,29.479,0,0,1,7.322-.858,28.074,28.074,0,0,1,14.579,3.67l.048.03.05.025a3.841,3.841,0,0,0,1.848.5,3.119,3.119,0,0,0,3.094-3.277,3.276,3.276,0,0,0-1.743-2.933,34.293,34.293,0,0,0-17.694-4.566Zm.55,7.9a37.789,37.789,0,0,0-9.3,1.14,2.84,2.84,0,0,0-2.237,2.87,2.7,2.7,0,0,0,2.725,2.727,2.99,2.99,0,0,0,.656-.1,3.734,3.734,0,0,1,.449-.084l.127,0,.153-.029a32.414,32.414,0,0,1,7.248-.885A23.29,23.29,0,0,1,35.633,39.5l.031.019.033.016a3.706,3.706,0,0,0,1.667.5A3.028,3.028,0,0,0,40.236,37.8l.038-.15V37.5a2.952,2.952,0,0,0-1.48-2.7l-.028-.018-.028-.016a28.6,28.6,0,0,0-14.6-3.851Z" transform="translate(-2.501 -1.194)"/><path class="c" d="M24.014,16.066c6.979,0,14.324,1.47,19.834,4.591a2.338,2.338,0,0,1,1.284,2.2,2.4,2.4,0,0,1-2.386,2.205,3.427,3.427,0,0,1-1.285-.366c-4.408-2.572-11.018-4.042-17.447-4.042a40.068,40.068,0,0,0-9.549,1.1c-.368,0-.735.183-1.285.183a1.914,1.914,0,0,1-.278.02,2.065,2.065,0,0,1-1.926-2.224,2.065,2.065,0,0,1,1.652-2.2,37.184,37.184,0,0,1,11.386-1.47m-.552,8.081a32.878,32.878,0,0,1,17.08,4.407,2.019,2.019,0,0,1,1.1,1.836,1.887,1.887,0,0,1-1.837,2.02,2.647,2.647,0,0,1-1.285-.366A29.241,29.241,0,0,0,23.28,28.185a30.5,30.5,0,0,0-7.714.921,2.77,2.77,0,0,1-1.1.181,1.84,1.84,0,0,1-1.837-1.836A1.989,1.989,0,0,1,14.1,25.432a33.933,33.933,0,0,1,9.366-1.285m.55,7.9A27.247,27.247,0,0,1,37.97,35.718a1.719,1.719,0,0,1,.919,1.651,1.762,1.762,0,0,1-1.652,1.285,2.6,2.6,0,0,1-1.1-.367,24.5,24.5,0,0,0-12.3-3.121,33.761,33.761,0,0,0-7.53.917c-.367,0-.919.183-1.1.183A1.449,1.449,0,0,1,13.73,34.8a1.6,1.6,0,0,1,1.285-1.651,36.509,36.509,0,0,1,9-1.1m0-16.606a37.442,37.442,0,0,0-11.545,1.49,2.685,2.685,0,0,0-2.122,2.812A2.687,2.687,0,0,0,12.9,22.593a2.59,2.59,0,0,0,.323-.02,4.024,4.024,0,0,0,.866-.121,1.933,1.933,0,0,1,.376-.063h.077l.075-.019a39.443,39.443,0,0,1,9.4-1.083c6.481,0,12.884,1.479,17.13,3.957l.057.033.063.02c.155.052.278.1.388.15a2.523,2.523,0,0,0,1.094.248,3.012,3.012,0,0,0,3.008-2.745l.006-.044V22.86a2.967,2.967,0,0,0-1.631-2.766c-5.216-2.953-12.558-4.657-20.117-4.657Zm-.552,8.081a34.369,34.369,0,0,0-9.528,1.307l-.036.01-.035.014A2.608,2.608,0,0,0,12,27.451a2.47,2.47,0,0,0,2.465,2.464,3.394,3.394,0,0,0,1.3-.212,30.131,30.131,0,0,1,7.518-.89A28.714,28.714,0,0,1,38.19,32.578a3.32,3.32,0,0,0,1.616.46,2.505,2.505,0,0,0,2.465-2.649,2.648,2.648,0,0,0-1.45-2.4,33.582,33.582,0,0,0-17.359-4.472Zm.55,7.9a37.167,37.167,0,0,0-9.151,1.121A2.236,2.236,0,0,0,13.1,34.8a2.077,2.077,0,0,0,2.1,2.1,2.435,2.435,0,0,0,.516-.084,3.456,3.456,0,0,1,.586-.1h.072l.07-.016a33.009,33.009,0,0,1,7.388-.9,23.936,23.936,0,0,1,11.99,3.037,3.2,3.2,0,0,0,1.416.451A2.385,2.385,0,0,0,39.5,37.521l.019-.075v-.077a2.329,2.329,0,0,0-1.2-2.174,28.01,28.01,0,0,0-14.305-3.78Z" transform="translate(-2.373 -1.066)"/><path class="d" d="M37.108,38.526a2.6,2.6,0,0,1-1.1-.367,24.5,24.5,0,0,0-12.3-3.121,33.762,33.762,0,0,0-7.53.917c-.367,0-.919.183-1.1.183a1.449,1.449,0,0,1-1.469-1.47,1.6,1.6,0,0,1,1.285-1.651,36.508,36.508,0,0,1,9-1.1A27.247,27.247,0,0,1,37.842,35.59a1.719,1.719,0,0,1,.919,1.651A1.762,1.762,0,0,1,37.108,38.526Zm2.571-6.245a2.647,2.647,0,0,1-1.285-.366,29.241,29.241,0,0,0-15.241-3.859,30.5,30.5,0,0,0-7.714.921,2.77,2.77,0,0,1-1.1.181A1.84,1.84,0,0,1,12.5,27.323,1.989,1.989,0,0,1,13.968,25.3a33.933,33.933,0,0,1,9.366-1.285,32.878,32.878,0,0,1,17.08,4.407,2.019,2.019,0,0,1,1.1,1.836A1.887,1.887,0,0,1,39.679,32.281Zm2.939-7.343a3.427,3.427,0,0,1-1.285-.366C36.925,22,30.314,20.531,23.886,20.531a40.068,40.068,0,0,0-9.549,1.1c-.368,0-.735.183-1.285.183a2.026,2.026,0,0,1-2.2-2.2,2.065,2.065,0,0,1,1.652-2.2,37.184,37.184,0,0,1,11.386-1.47c6.979,0,14.324,1.47,19.834,4.591A2.338,2.338,0,0,1,45,22.733,2.4,2.4,0,0,1,42.618,24.938Z" transform="translate(-2.245 -0.938)"/></svg>