<svg xmlns="http://www.w3.org/2000/svg" xmlns:xlink="http://www.w3.org/1999/xlink" width="50.581" height="50.581" viewBox="0 0 50.581 50.581"><defs><style>.a{fill:url(#a);}.b{fill:#ec407a;}.b,.c,.d{fill-rule:evenodd;}.c{fill:#fff;}.d{fill:#81d4fa;}</style><linearGradient id="a" x1="0.491" y1="0.01" x2="0.491" y2="1.007" gradientUnits="objectBoundingBox"><stop offset="0" stop-color="#4c4c4c"/><stop offset="1" stop-color="#343434"/></linearGradient></defs><path class="a" d="M53.777,56.538l-44.923.044a2.815,2.815,0,0,1-2.81-2.8L6,8.854a2.815,2.815,0,0,1,2.8-2.81L53.728,6a2.815,2.815,0,0,1,2.81,2.8l.044,44.923A2.815,2.815,0,0,1,53.777,56.538Z" transform="translate(-6 -6)"/><path class="b" d="M34.36,23.78a13.47,13.47,0,0,0,7.857,2.512V20.657a7.933,7.933,0,0,1-1.65-.173V24.92a13.483,13.483,0,0,1-7.857-2.512v11.5A10.424,10.424,0,0,1,16.488,42.56,10.423,10.423,0,0,0,34.36,35.278V23.78ZM36.4,18.1a7.859,7.859,0,0,1-2.036-4.6v-.725H32.8A7.891,7.891,0,0,0,36.4,18.1ZM20.128,38.147a4.768,4.768,0,0,1,5.241-7.426V24.961a10.612,10.612,0,0,0-1.65-.1v4.483a4.766,4.766,0,0,0-3.591,8.8Z" transform="translate(-1.752 -3.257)"/><path class="c" d="M33.566,22.408a13.47,13.47,0,0,0,7.857,2.512V20.484a7.9,7.9,0,0,1-4.172-2.39,7.886,7.886,0,0,1-3.6-5.322H29.546V35.278a4.768,4.768,0,0,1-8.562,2.868,4.767,4.767,0,0,1,3.593-8.8V24.867a10.414,10.414,0,0,0-7.23,17.695,10.424,10.424,0,0,0,16.223-8.654l0-11.5Z" transform="translate(-2.607 -3.257)"/><path class="d" d="M41.9,20.881v-1.2a7.849,7.849,0,0,1-4.172-1.191A7.875,7.875,0,0,0,41.9,20.881Zm-7.771-7.714c-.038-.215-.066-.43-.086-.648v-.725H28.372V34.3a4.769,4.769,0,0,1-6.911,4.239,4.768,4.768,0,0,0,8.562-2.868V13.168ZM25.051,25.262V23.985a10.575,10.575,0,0,0-1.43-.1,10.415,10.415,0,0,0-5.8,19.069,10.414,10.414,0,0,1,7.232-17.695Z" transform="translate(-3.084 -3.653)"/></svg>