<svg xmlns="http://www.w3.org/2000/svg" xmlns:xlink="http://www.w3.org/1999/xlink" width="50.581" height="50.581" viewBox="0 0 50.581 50.581"><defs><style>.a{fill:url(#a);}.b{fill:url(#b);}.c{fill:#fff;}</style><radialGradient id="a" cx="24.793" cy="56.608" r="63.052" gradientUnits="userSpaceOnUse"><stop offset="0" stop-color="#fd5"/><stop offset="0.328" stop-color="#ff543f"/><stop offset="0.348" stop-color="#fc5245"/><stop offset="0.504" stop-color="#e64771"/><stop offset="0.643" stop-color="#d53e91"/><stop offset="0.761" stop-color="#cc39a4"/><stop offset="0.841" stop-color="#c837ab"/></radialGradient><radialGradient id="b" cx="14.129" cy="-16.599" r="41.866" gradientTransform="translate(0 -7.525) scale(1 0.666)" gradientUnits="userSpaceOnUse"><stop offset="0" stop-color="#4168c9"/><stop offset="0.999" stop-color="#4168c9" stop-opacity="0"/></radialGradient></defs><path class="a" d="M45.348,56.544l-28.086.027A11.268,11.268,0,0,1,6.017,45.348L5.99,17.262A11.268,11.268,0,0,1,17.213,6.017L45.3,5.99A11.268,11.268,0,0,1,56.544,17.213L56.571,45.3A11.266,11.266,0,0,1,45.348,56.544Z" transform="translate(-5.99 -5.99)"/><path class="b" d="M45.348,56.544l-28.086.027A11.268,11.268,0,0,1,6.017,45.348L5.99,17.262A11.268,11.268,0,0,1,17.213,6.017L45.3,5.99A11.268,11.268,0,0,1,56.544,17.213L56.571,45.3A11.266,11.266,0,0,1,45.348,56.544Z" transform="translate(-5.99 -5.99)"/><path class="c" d="M26.83,36.66a9.83,9.83,0,1,1,9.83-9.83A9.842,9.842,0,0,1,26.83,36.66Zm0-16.851a7.021,7.021,0,1,0,7.021,7.021A7.029,7.029,0,0,0,26.83,19.809Z" transform="translate(-1.539 -1.539)"/><ellipse class="c" cx="2.106" cy="2.106" rx="2.106" ry="2.106" transform="translate(33.717 12.653)"/><path class="c" d="M37.682,47.511H20.83A9.842,9.842,0,0,1,11,37.681V20.83A9.842,9.842,0,0,1,20.83,11H37.682a9.842,9.842,0,0,1,9.83,9.83V37.681A9.842,9.842,0,0,1,37.682,47.511ZM20.83,13.809a7.029,7.029,0,0,0-7.021,7.021V37.681A7.029,7.029,0,0,0,20.83,44.7H37.682A7.029,7.029,0,0,0,44.7,37.681V20.83a7.029,7.029,0,0,0-7.021-7.021Z" transform="translate(-3.965 -3.965)"/></svg>