<svg xmlns="http://www.w3.org/2000/svg" xmlns:xlink="http://www.w3.org/1999/xlink" width="68.608" height="29.467" viewBox="0 0 68.608 29.467"><defs><style>.a{fill:url(#a);}</style><linearGradient id="a" x1="0.5" y1="-0.28" x2="0.5" y2="1.087" gradientUnits="objectBoundingBox"><stop offset="0" stop-color="#ffac00"/><stop offset="0.966" stop-color="#fe651e"/></linearGradient></defs><path class="a" d="M14.427,43.516h3.107V21.8a11.333,11.333,0,0,0-3.107,4.848ZM31.515,20.35a14.626,14.626,0,0,0-4.66-1.3V43.514h4.66ZM20.641,43.516H25.3V19.006a13.587,13.587,0,0,0-4.66.867ZM5.107,29.434A7.876,7.876,0,0,0,2,35.708a7.639,7.639,0,0,0,3.107,6.066Zm57.468-3.009a7.182,7.182,0,0,0-3.546.809s-1.3-13.185-14.4-13.185c-7.621,0-10.61,4.2-11.559,6.054V43.514H61.491s9.117-.146,9.117-8.471A8.6,8.6,0,0,0,62.575,26.425ZM11.32,28.109a16.173,16.173,0,0,0-2.083-.137,6.277,6.277,0,0,0-1.024.113V43.258a8.515,8.515,0,0,0,2.037.258h1.07Z" transform="translate(-2 -14.049)"/></svg>