<svg xmlns="http://www.w3.org/2000/svg" xmlns:xlink="http://www.w3.org/1999/xlink" width="69.549" height="50.581" viewBox="0 0 69.549 50.581"><defs><style>.a{fill:url(#a);}.b{opacity:0.05;}.c{opacity:0.07;}.d{fill:#fff;}</style><linearGradient id="a" x1="0.178" y1="0.058" x2="0.892" y2="1.041" gradientUnits="objectBoundingBox"><stop offset="0" stop-color="#f44f5a"/><stop offset="0.443" stop-color="#ee3d4a"/><stop offset="1" stop-color="#e52030"/></linearGradient></defs><path class="a" d="M69.987,49.982A8.559,8.559,0,0,1,62.7,56.727a185.685,185.685,0,0,1-26.016,1.854,190.114,190.114,0,0,1-26.016-1.854,8.557,8.557,0,0,1-7.284-6.745A95.975,95.975,0,0,1,2,33.291,95.976,95.976,0,0,1,3.388,16.6a8.559,8.559,0,0,1,7.284-6.745A185.684,185.684,0,0,1,36.688,8,187.881,187.881,0,0,1,62.7,9.854,8.557,8.557,0,0,1,69.987,16.6a93.034,93.034,0,0,1,1.562,16.692A112.668,112.668,0,0,1,69.987,49.982Z" transform="translate(-2 -8)"/><path class="b" d="M40.686,27.05,22.609,15A2.965,2.965,0,0,0,18,17.465v24.1a2.963,2.963,0,0,0,4.608,2.467L40.684,31.984a2.966,2.966,0,0,0,0-4.933Z" transform="translate(7.291 -4.226)"/><path class="c" d="M21.947,15.372,39,26.743c1.089.782,1.822,1.483,1.822,2.392a2.413,2.413,0,0,1-1.13,2.109c-.586.427-17.458,11.64-17.458,11.64-1.424.955-3.737.752-3.737-2.369V17.754C18.5,14.584,21,14.742,21.947,15.372Z" transform="translate(7.581 -3.932)"/><path class="d" d="M19,40.9V16.974a1.471,1.471,0,0,1,2.287-1.223L39.231,27.713a1.471,1.471,0,0,1,0,2.448L21.287,42.124A1.472,1.472,0,0,1,19,40.9Z" transform="translate(7.871 -3.645)"/></svg>