<svg xmlns="http://www.w3.org/2000/svg" width="58.33" height="44.442" viewBox="0 0 58.33 44.442"><defs><style>.a{fill:#4caf50;}.b{fill:#1e88e5;}.c{fill:#e53935;}.d{fill:#c62828;}.e{fill:#fbc02d;}</style></defs><path class="a" d="M48.888,16.2l-6.944,3.819L35,26.616V49.254h9.722a4.166,4.166,0,0,0,4.166-4.166Z" transform="translate(9.442 -4.812)"/><path class="b" d="M3,16.2l5.019,2.375,8.869,8.041V49.254H7.166A4.166,4.166,0,0,1,3,45.087Z" transform="translate(-3 -4.812)"/><path class="c" d="M43.943,11.2,28.666,22.658,13.389,11.2,12,19.255l1.389,9.305L28.666,40.018,43.943,28.56l1.389-9.305Z" transform="translate(0.499 -6.756)"/><path class="d" d="M3,13.969v5.419L16.888,29.8V12.444L12.549,9.193A5.965,5.965,0,0,0,8.969,8h0A5.969,5.969,0,0,0,3,13.969Z" transform="translate(-3 -8)"/><path class="e" d="M48.888,13.969v5.419L35,29.8V12.444l4.339-3.251A5.965,5.965,0,0,1,42.919,8h0A5.969,5.969,0,0,1,48.888,13.969Z" transform="translate(9.442 -8)"/></svg>