<svg xmlns="http://www.w3.org/2000/svg" width="50.001" height="40.276" viewBox="0 0 50.001 40.276"><defs><style>.a{fill:#03a9f4;}</style></defs><path class="a" d="M56,13.762a20.8,20.8,0,0,1-5.9,1.614A10.248,10.248,0,0,0,54.615,9.74,20.594,20.594,0,0,1,48.1,12.207a10.231,10.231,0,0,0-17.47,9.279A29.234,29.234,0,0,1,9.484,10.855,10.042,10.042,0,0,0,8.1,15.975a10.145,10.145,0,0,0,4.562,8.466,10.444,10.444,0,0,1-4.651-1.269v.119a10.2,10.2,0,0,0,8.226,9.973,10.2,10.2,0,0,1-2.7.365,10.9,10.9,0,0,1-1.933-.187,10.277,10.277,0,0,0,9.58,7.063A20.728,20.728,0,0,1,8.443,44.858,20.293,20.293,0,0,1,6,44.713a29.316,29.316,0,0,0,15.727,4.562c18.867,0,29.189-15.494,29.189-28.934,0-.44-.014-.879-.035-1.312A20.182,20.182,0,0,0,56,13.762" transform="translate(-5.997 -9)"/></svg>