<svg xmlns="http://www.w3.org/2000/svg" xmlns:xlink="http://www.w3.org/1999/xlink" width="56.627" height="50.581" viewBox="0 0 56.627 50.581"><defs><style>.a{fill:#fff;}.b{clip-path:url(#a);}.c{fill:url(#b);}.d{fill:url(#c);}.e{fill:url(#d);}.f{fill:url(#e);}.g{fill:url(#f);}.h{opacity:0.05;}.i{opacity:0.07;}</style><clipPath id="a"><path class="a" d="M0,0H56.627V50.581H0Z" transform="translate(0 0)"/></clipPath><radialGradient id="b" cx="316.979" cy="297.074" r="40.807" gradientUnits="userSpaceOnUse"><stop offset="0" stop-color="#fd5"/><stop offset="0.511" stop-color="#ff543f"/><stop offset="0.558" stop-color="#fc5245"/><stop offset="0.644" stop-color="#e64771"/><stop offset="0.761" stop-color="#d53e91"/><stop offset="0.863" stop-color="#cc39a4"/><stop offset="0.943" stop-color="#c837ab"/></radialGradient><linearGradient id="c" x1="0.887" y1="-0.25" x2="0.282" y2="0.923" gradientUnits="objectBoundingBox"><stop offset="0" stop-color="#fd5"/><stop offset="0.328" stop-color="#ff543f"/><stop offset="0.348" stop-color="#fc5245"/><stop offset="0.504" stop-color="#e64771"/><stop offset="0.643" stop-color="#d53e91"/><stop offset="0.761" stop-color="#cc39a4"/><stop offset="0.841" stop-color="#c837ab"/></linearGradient><linearGradient id="d" x1="0.495" y1="0.652" x2="0.505" y2="0.184" gradientUnits="objectBoundingBox"><stop offset="0" stop-color="#29abe2"/><stop offset="0.999" stop-color="#29abe2" stop-opacity="0"/></linearGradient><radialGradient id="e" cx="806.581" cy="1853.499" r="26.668" gradientTransform="translate(-80.66 -61.982) scale(1.155 1.073)" gradientUnits="userSpaceOnUse"><stop offset="0" stop-color="#29abe2"/><stop offset="0.613" stop-color="#a0f"/><stop offset="0.989" stop-color="#29abe2" stop-opacity="0"/></radialGradient><radialGradient id="f" cx="13.943" cy="12.209" fx="10.942826745146647" fy="11.914026016926982" r="13.531" gradientTransform="matrix(0.299, -0.568, 1.151, 0.607, -4.287, 12.712)" gradientUnits="userSpaceOnUse"><stop offset="0.129" stop-color="#29abe2"/><stop offset="0.794" stop-color="#29abe2" stop-opacity="0"/></radialGradient></defs><g class="b"><g transform="translate(3.023 0)"><path class="c" d="M326.579,336.414H295.669a9.864,9.864,0,0,1-9.835-9.835V295.669a9.864,9.864,0,0,1,9.835-9.835h30.911a9.864,9.864,0,0,1,9.835,9.835v30.911A9.864,9.864,0,0,1,326.579,336.414Z" transform="translate(-285.833 -285.833)"/><rect class="d" width="20.752" height="28.398" transform="translate(15.461 8.906)"/><path class="e" d="M1119.609,968.5h25.99V989.11a9.835,9.835,0,0,1-9.835,9.835h-16.155Z" transform="translate(-1095.018 -948.364)"/><path class="f" d="M285.833,1003.465h25.461v29.416H295.669a9.835,9.835,0,0,1-9.835-9.835Z" transform="translate(-285.833 -982.3)"/><rect class="g" width="26.956" height="17.295" transform="translate(12.517 33.287)"/><path class="h" d="M463.876,428.75h-28.1a7.033,7.033,0,0,0-7.025,7.025v28.1a7.033,7.033,0,0,0,7.025,7.025h28.1a7.033,7.033,0,0,0,7.025-7.025v-28.1A7.033,7.033,0,0,0,463.876,428.75Zm-9.147,26.821,2.41-.344a2.537,2.537,0,0,0,1.117-.448v2.616a2.028,2.028,0,0,1-1.732,2l-1.222.176a2.019,2.019,0,0,1-.572-4Zm1.512-14.432-10.373,2.224a2.551,2.551,0,0,0-.943.416V439.6l13.331-2.856v4.811A2.593,2.593,0,0,0,456.241,441.138Zm-12.4,16.523v2.615a2.028,2.028,0,0,1-1.732,2l-1.222.176a2.014,2.014,0,0,1-1.707-.566,1.994,1.994,0,0,1-.6-1.432,2.028,2.028,0,0,1,1.732-2l2.411-.344A2.533,2.533,0,0,0,443.844,457.661Z" transform="translate(-424.535 -424.535)"/><path class="i" d="M486.993,452.569h-28.1a6.33,6.33,0,0,0-6.323,6.323v28.1a6.33,6.33,0,0,0,6.323,6.323h28.1a6.33,6.33,0,0,0,6.323-6.323v-28.1A6.33,6.33,0,0,0,486.993,452.569Zm-9.247,25.423,2.411-.344a1.865,1.865,0,0,0,1.595-1.838v-9.054a1.874,1.874,0,0,0-2.245-1.814l-10.375,2.224a1.865,1.865,0,0,0-1.468,1.814v14.414a2.733,2.733,0,0,1-2.337,2.693l-1.221.176A2.721,2.721,0,0,1,461,483.57a2.733,2.733,0,0,1,2.335-2.693l2.412-.344a1.865,1.865,0,0,0,1.593-1.838V462.509a.451.451,0,0,1,.355-.44l13.835-2.965a.46.46,0,0,1,.1-.01.449.449,0,0,1,.447.451v20.967a2.734,2.734,0,0,1-2.337,2.694l-1.221.175a2.722,2.722,0,0,1-.771-5.39Z" transform="translate(-447.652 -447.652)"/><path class="a" d="M510.11,476.389h-28.1a5.637,5.637,0,0,0-5.62,5.62v28.1a5.637,5.637,0,0,0,5.62,5.62h28.1a5.637,5.637,0,0,0,5.62-5.62v-28.1A5.637,5.637,0,0,0,510.11,476.389Zm-4.215,27.239a3.423,3.423,0,0,1-2.939,3.389l-1.222.174a3.423,3.423,0,1,1-.968-6.778l2.411-.344a1.153,1.153,0,0,0,.989-1.141v-9.055a1.152,1.152,0,0,0-1.394-1.127L492.4,490.969a1.153,1.153,0,0,0-.912,1.127V506.51a3.423,3.423,0,0,1-2.939,3.389l-1.222.174a3.423,3.423,0,1,1-.968-6.776l2.411-.344a1.153,1.153,0,0,0,.989-1.141V485.625a1.152,1.152,0,0,1,.912-1.127l13.834-2.965a1.153,1.153,0,0,1,1.4,1.127Z" transform="translate(-470.769 -470.769)"/></g></g></svg>