<svg xmlns="http://www.w3.org/2000/svg" width="34.409" height="34.409" viewBox="0 0 34.409 34.409"><path d="M31.035,4H11.373A7.382,7.382,0,0,0,4,11.373V31.035a7.382,7.382,0,0,0,7.373,7.373H31.035a7.382,7.382,0,0,0,7.373-7.373V11.373A7.382,7.382,0,0,0,31.035,4ZM29.4,22.843v3.294h0A4.1,4.1,0,0,1,25.3,30.216h-.41a2.868,2.868,0,0,1-2.853-3.16,2.959,2.959,0,0,1,2.971-2.575H26.12a1.64,1.64,0,0,0,1.639-1.639V14.818l-9.831,1.843V28.578a4.1,4.1,0,0,1-4.1,4.1h-.41a2.868,2.868,0,0,1-2.853-3.16,2.959,2.959,0,0,1,2.971-2.575H14.65A1.64,1.64,0,0,0,16.289,25.3v-12a1.639,1.639,0,0,1,1.338-1.611L27.942,9.757A1.228,1.228,0,0,1,29.4,10.964Z" transform="translate(-4 -4)"/></svg>