<svg xmlns="http://www.w3.org/2000/svg" width="39.071" height="29.421" viewBox="0 0 39.071 29.421"><path d="M10.494,20.987V9.933l-.1-.076h-.008L8.064,8.142a3.638,3.638,0,0,0-4.7.238A4.587,4.587,0,0,0,2,11.649v3.059Zm22.083-.011v.011l8.494-6.278V11.649A4.59,4.59,0,0,0,39.729,8.4a3.543,3.543,0,0,0-4.607-.342l-2.443,1.8-.1.076ZM12.192,22.231l8.838,6.533a.85.85,0,0,0,1.01,0l8.838-6.533V11.188L21.535,18.1l-9.343-6.908Zm20.385.867V35.933a.85.85,0,0,0,.849.849h5.521a2.123,2.123,0,0,0,2.123-2.123V16.82Zm-22.083,0L2,16.82V34.659a2.123,2.123,0,0,0,2.123,2.123H9.644a.85.85,0,0,0,.849-.849Z" transform="translate(-2 -7.361)"/></svg>