<svg xmlns="http://www.w3.org/2000/svg" width="34.14" height="34.14" viewBox="0 0 34.14 34.14"><path d="M16.955,7A9.969,9.969,0,0,0,7,16.959V31.183a9.97,9.97,0,0,0,9.959,9.957H31.183a9.97,9.97,0,0,0,9.957-9.959V16.955A9.969,9.969,0,0,0,31.181,7Zm17.357,5.462a1.366,1.366,0,1,1-1.366,1.366A1.366,1.366,0,0,1,34.312,12.462ZM24.07,15.194a8.876,8.876,0,1,1-8.876,8.876A8.885,8.885,0,0,1,24.07,15.194Zm0,2.731a6.145,6.145,0,1,0,6.145,6.145A6.145,6.145,0,0,0,24.07,17.925Z" transform="translate(-7 -7)"/></svg>