<svg xmlns="http://www.w3.org/2000/svg" width="47.319" height="23.66" viewBox="0 0 47.319 23.66"><path d="M28.391,11a10.4,10.4,0,0,0-8.517,4.436V34.659H40.221A7.1,7.1,0,1,0,38.8,20.641,10.492,10.492,0,0,0,28.391,11Zm-12.3,4.732a11.551,11.551,0,0,0-1.893.177v18.75h1.893Zm.946,0V34.659h1.893V16.205A11.341,11.341,0,0,0,17.035,15.732Zm-3.786.473a12.066,12.066,0,0,0-1.893.946V34.659h1.893ZM10.41,17.92a8.1,8.1,0,0,0-1.893,2.455V34.659H10.41ZM6.151,21.41a1.884,1.884,0,0,0-.473.089V34.571a3.167,3.167,0,0,0,.946.089h.946V21.5a3.164,3.164,0,0,0-.946-.089C6.484,21.41,6.318,21.4,6.151,21.41Zm-1.42.3a5.1,5.1,0,0,0-1.893.946V33.417a7.149,7.149,0,0,0,1.893.946ZM1.893,23.392a6.642,6.642,0,0,0,0,9.286Z" transform="translate(0 -11)"/></svg>