<svg xmlns="http://www.w3.org/2000/svg" width="31.421" height="31.421" viewBox="0 0 31.421 31.421"><path d="M17.71,1.982a15.71,15.71,0,1,0,15.71,15.71A15.728,15.728,0,0,0,17.71,1.982Zm6.65,22.772a1.025,1.025,0,0,1-1.421.284A13.784,13.784,0,0,0,16,23.162a15.737,15.737,0,0,0-4.456.63,1.024,1.024,0,1,1-.647-1.943,17.682,17.682,0,0,1,5.1-.735,15.581,15.581,0,0,1,8.079,2.22A1.023,1.023,0,0,1,24.36,24.754ZM26.4,20.562a1.172,1.172,0,0,1-1,.552,1.159,1.159,0,0,1-.619-.178,16.108,16.108,0,0,0-8.919-2.287,27.11,27.11,0,0,0-5.549.623,1.172,1.172,0,1,1-.639-2.255,26.712,26.712,0,0,1,5.975-.683,19.009,19.009,0,0,1,10.372,2.612A1.172,1.172,0,0,1,26.4,20.562Zm2.038-4.9a1.367,1.367,0,0,1-1.869.486C23,14.05,18.665,13.606,15.654,13.6h-.043a32,32,0,0,0-6.474.647,1.365,1.365,0,0,1-.621-2.659,34.184,34.184,0,0,1,7.094-.719h.047c3.349,0,8.2.514,12.3,2.919A1.367,1.367,0,0,1,28.441,15.659Z" transform="translate(-2 -1.982)"/></svg>