<svg xmlns="http://www.w3.org/2000/svg" width="34.677" height="34.677" viewBox="0 0 34.677 34.677"><path d="M34.549,4H8.128A4.133,4.133,0,0,0,4,8.128V34.549a4.133,4.133,0,0,0,4.128,4.128H34.549a4.133,4.133,0,0,0,4.128-4.128V8.128A4.133,4.133,0,0,0,34.549,4Zm-3.3,15.128c-.187.017-.377.029-.57.029a6.186,6.186,0,0,1-5.176-2.8v9.526a7.04,7.04,0,1,1-7.04-7.04c.147,0,.291.013.435.022v3.469a3.585,3.585,0,1,0-.435,7.143A3.681,3.681,0,0,0,22.2,25.931c0-.078.035-16.178.035-16.178h3.316a6.183,6.183,0,0,0,5.7,5.519Z" transform="translate(-4 -4)"/></svg>