<svg xmlns="http://www.w3.org/2000/svg" width="35.267" height="28.66" viewBox="0 0 35.267 28.66"><path d="M35.209,9.009A14.474,14.474,0,0,1,31.05,10.15a7.254,7.254,0,0,0,3.183-4,14.528,14.528,0,0,1-4.6,1.754A7.239,7.239,0,0,0,17.31,14.5,20.545,20.545,0,0,1,2.4,6.939,7.251,7.251,0,0,0,4.636,16.6,7.229,7.229,0,0,1,1.357,15.7v.091a7.245,7.245,0,0,0,5.8,7.1,7.242,7.242,0,0,1-1.9.253A6.97,6.97,0,0,1,3.891,23a7.252,7.252,0,0,0,6.759,5.027,14.5,14.5,0,0,1-8.985,3.095,14.235,14.235,0,0,1-1.723-.1,20.443,20.443,0,0,0,11.091,3.252c13.309,0,20.587-11.025,20.587-20.584,0-.313-.008-.629-.019-.937A14.709,14.709,0,0,0,35.209,9.009Z" transform="translate(0.059 -5.617)"/></svg>