<svg xmlns="http://www.w3.org/2000/svg" width="36.893" height="27.391" viewBox="0 0 36.893 27.391"><path d="M38.863,13.708a4.862,4.862,0,0,0-3.852-3.681A76.16,76.16,0,0,0,21.316,9,77.283,77.283,0,0,0,7.537,10.026a4.751,4.751,0,0,0-3.852,3.681A56.161,56.161,0,0,0,3,22.7a46.585,46.585,0,0,0,.769,8.988,4.872,4.872,0,0,0,3.852,3.681A78.74,78.74,0,0,0,21.4,36.391a78.741,78.741,0,0,0,13.782-1.026,4.755,4.755,0,0,0,3.852-3.681,65.671,65.671,0,0,0,.856-8.988A59.9,59.9,0,0,0,38.863,13.708ZM16.7,28.687V16.7L27.137,22.7Z" transform="translate(-3 -9)"/></svg>